<?xml version="1.0" encoding="UTF-8" standalone="no"?>
<svg
   xmlns:dc="http://purl.org/dc/elements/1.1/"
   xmlns:cc="http://creativecommons.org/ns#"
   xmlns:rdf="http://www.w3.org/1999/02/22-rdf-syntax-ns#"
   xmlns:svg="http://www.w3.org/2000/svg"
   xmlns="http://www.w3.org/2000/svg"
   xmlns:sodipodi="http://sodipodi.sourceforge.net/DTD/sodipodi-0.dtd"
   xmlns:inkscape="http://www.inkscape.org/namespaces/inkscape"
   fill="#000000"
   height="24"
   viewBox="0 0 24 24"
   width="24"
   version="1.1"
   id="svg6"
   sodipodi:docname="done_all.svg"
   inkscape:version="0.92.1 r">
  <metadata
     id="metadata12">
    <rdf:RDF>
      <cc:Work
         rdf:about="">
        <dc:format>image/svg+xml</dc:format>
        <dc:type
           rdf:resource="http://purl.org/dc/dcmitype/StillImage" />
      </cc:Work>
    </rdf:RDF>
  </metadata>
  <defs
     id="defs10" />
  <sodipodi:namedview
     pagecolor="#ffffff"
     bordercolor="#666666"
     borderopacity="1"
     objecttolerance="10"
     gridtolerance="10"
     guidetolerance="10"
     inkscape:pageopacity="0"
     inkscape:pageshadow="2"
     inkscape:window-width="1920"
     inkscape:window-height="1022"
     id="namedview8"
     showgrid="false"
     inkscape:zoom="32"
     inkscape:cx="7.1858651"
     inkscape:cy="11.844052"
     inkscape:window-x="0"
     inkscape:window-y="58"
     inkscape:window-maximized="0"
     inkscape:current-layer="svg6" />
  <path
     d="M0 0h24v24H0z"
     fill="none"
     id="path2" />
  <path
     d="M18 7l-1.41-1.41-6.34 6.34 1.41 1.41L18 7zm4.24-1.41L11.66 16.17 7.48 12l-1.41 1.41L11.66 19l12-12-1.42-1.41zM.41 13.41L6 19l1.41-1.41L1.83 12 .41 13.41z"
     id="path4" />
  <path
     style="fill:#008000;fill-opacity:1;stroke:#000000;stroke-width:0.10169491;stroke-opacity:1"
     d="m 8.8884461,16.190141 -2.7444254,-2.745838 0.6856225,-0.685622 0.6856224,-0.685623 2.085022,2.083162 2.0850224,2.08316 5.287566,-5.286832 5.287566,-5.2868329 0.660995,0.6609952 0.660996,0.6609952 -5.974781,5.9741365 -5.974781,5.974137 z"
     id="path4489"
     inkscape:connector-curvature="0" />
  <path
     style="fill:#008000;fill-opacity:1;stroke:#000000;stroke-width:0.10169491;stroke-opacity:1"
     d="m 10.971522,12.578289 -0.656501,-0.662388 3.125173,-3.1251731 3.125173,-3.1251728 0.686024,0.6860248 0.686025,0.6860247 -3.100286,3.1015364 c -1.705157,1.705845 -3.124771,3.101537 -3.154697,3.101537 -0.02993,0 -0.349836,-0.298075 -0.710911,-0.662389 z"
     id="path4491"
     inkscape:connector-curvature="0" />
  <path
     style="fill:#008000;fill-opacity:1;stroke:#000000;stroke-width:0.10169491;stroke-opacity:1"
     d="M 3.2675409,16.162468 0.49603895,13.389591 1.1595473,12.73198 1.8230556,12.07437 4.5922963,14.84361 7.361537,17.612851 6.70029,18.274098 6.039043,18.935345 Z"
     id="path4493"
     inkscape:connector-curvature="0" />
  <path
     style="fill:#008000;fill-opacity:1;stroke:#000000;stroke-width:0.01271186;stroke-opacity:1"
     d="m 8.8618513,16.222042 c -1.522475,-1.522487 -2.7697627,-2.778816 -2.7717506,-2.791841 -0.00483,-0.03166 1.3806292,-1.419195 1.410576,-1.412687 0.011301,0.0025 0.9564576,0.936408 2.1003473,2.075449 l 2.0798,2.070983 3.701296,-3.70128 3.701296,-3.7012794 h 0.07625 0.07625 l -3.769051,3.7690674 c -2.072979,2.072988 -3.774782,3.769068 -3.781786,3.769068 -0.007,0 -0.94799,-0.935268 -2.0910798,-2.078374 l -2.0783451,-2.078374 -0.6515308,0.651438 -0.6515309,0.651439 2.7108141,2.710837 2.7108145,2.710836 5.05298,-5.052969 5.05298,-5.0529684 h 0.07626 0.07626 l -5.114395,5.1144064 c -2.812918,2.812924 -5.12203,5.114407 -5.131361,5.114407 -0.0093,0 -1.262628,-1.245671 -2.7851027,-2.768158 z"
     id="path4495"
     inkscape:connector-curvature="0" />
  <path
     style="fill:#008000;fill-opacity:1;stroke:#000000;stroke-width:0.01271186;stroke-opacity:1"
     d="M 8.8554397,16.225616 C 7.2172548,14.585811 6.0785128,13.436551 6.078848,13.423379 c 8.658e-4,-0.03402 1.3883168,-1.416509 1.4193014,-1.414226 0.024352,0.0018 0.3601512,0.333908 3.0460646,3.012639 l 1.134543,1.131509 3.695973,-3.695957 3.695974,-3.6959574 1.417364,9.08e-5 1.417365,9.09e-5 -5.110169,5.1085517 c -2.810594,2.809704 -5.121981,5.114594 -5.136417,5.121978 -0.02376,0.01215 -0.289537,-0.250124 -2.8034073,-2.766482 z"
     id="path4497"
     inkscape:connector-curvature="0" />
  <path
     style="fill:#008000;fill-opacity:1;stroke:#000000;stroke-width:0.01271186;stroke-opacity:1"
     d="m 10.955914,12.630664 c -0.385498,-0.381505 -0.700905,-0.700279 -0.700905,-0.708387 0,-0.0081 0.707901,-0.722626 1.573113,-1.587816 l 1.573112,-1.5730744 h 0.06988 0.06988 l -1.579952,1.5799904 -1.579952,1.57999 0.543954,0.539744 c 0.299175,0.29686 0.588448,0.579188 0.642829,0.627396 0.08725,0.07734 0.102195,0.08609 0.127118,0.07439 0.04701,-0.02207 1.120187,-1.07691 2.833088,-2.784664 l 1.6232,-1.6183228 0.05959,0.00392 0.05959,0.00392 -1.777884,1.7733058 c -1.636965,1.632748 -2.675694,2.655367 -2.789839,2.746571 l -0.04592,0.03669 z"
     id="path4505"
     inkscape:connector-curvature="0" />
  <path
     style="fill:#008000;fill-opacity:1;stroke:#000000;stroke-width:0.01271186;stroke-opacity:1"
     d="m 10.946747,12.631724 -0.71078,-0.7048 0.196955,-0.200353 c 0.108325,-0.110195 0.817632,-0.822441 1.576237,-1.582769 l 1.379281,-1.3824154 1.449175,4.56e-4 1.449174,4.561e-4 -1.722733,1.7188233 c -1.608346,1.604696 -2.667598,2.648413 -2.835119,2.793539 l -0.07141,0.06186 z"
     id="path4507"
     inkscape:connector-curvature="0" />
  <path
     style="fill:#008000;fill-opacity:1;stroke:#000000;stroke-width:0.00390625;stroke-opacity:1"
     d="m 10.943461,12.638047 c -0.392001,-0.388577 -0.713274,-0.70814 -0.71394,-0.71014 -6.67e-4,-0.002 0.104447,-0.110324 0.233586,-0.240721 l 0.234799,-0.237086 1.451798,1.99e-4 1.451797,2e-4 -0.14335,0.141402 c -0.07884,0.07777 -0.295986,0.292574 -0.48254,0.47734 -0.521443,0.516443 -0.932857,0.919424 -1.120266,1.097305 -0.07313,0.06941 -0.189929,0.174595 -0.196622,0.177069 -0.0014,5.15e-4 -0.323262,-0.316991 -0.715262,-0.705568 z"
     id="path4509"
     inkscape:connector-curvature="0" />
  <path
     style="fill:#008000;fill-opacity:1;stroke:#000000;stroke-width:0.03125;stroke-opacity:1"
     d="m 10.946519,12.640944 c -0.382278,-0.382562 -0.695052,-0.711275 -0.695052,-0.730473 0,-0.0192 1.424773,-1.449113 3.166163,-3.177587 l 3.166161,-3.1426803 0.714313,0.7148188 0.714311,0.7148189 -1.638286,1.6621664 c -0.901058,0.9141912 -1.899887,1.9170832 -2.219622,2.2286472 -0.319734,0.311565 -1.004239,0.984841 -1.521123,1.496169 -0.516883,0.511328 -0.951493,0.929688 -0.9658,0.929688 -0.01431,0 -0.338786,-0.313006 -0.721065,-0.695568 z"
     id="path4511"
     inkscape:connector-curvature="0" />
  <path
     style="fill:#008000;fill-opacity:1;stroke:#000000;stroke-width:0.03125;stroke-opacity:1"
     d="m 8.8296015,16.211521 -2.7811093,-2.781241 0.7262572,-0.726258 0.7262572,-0.726257 2.071552,2.069998 c 1.1393534,1.138499 2.0851454,2.069999 2.1017584,2.069999 0.01661,0 2.403257,-2.37302 5.303653,-5.273378 l 5.273446,-5.273377 0.710905,0.710905 0.710905,0.7109049 -5.999911,5.9999721 c -3.299951,3.299985 -6.014017,5.999972 -6.031258,5.999972 -0.01724,0 -1.282846,-1.251558 -2.8124555,-2.78124 z"
     id="path4513"
     inkscape:connector-curvature="0" />
  <path
     style="fill:#008000;fill-opacity:1;stroke:#000000;stroke-width:0.03125;stroke-opacity:1"
     d="m 3.2045265,16.178267 -2.78118412,-2.783245 0.70013872,-0.688426 0.7001388,-0.688427 2.7919512,2.791821 2.7919513,2.791821 -0.6793238,0.67985 c -0.3736278,0.373918 -0.6935356,0.67985 -0.7109056,0.67985 -0.01737,0 -1.2831153,-1.25246 -2.8127665,-2.783244 z M 4.5562308,14.875695 1.8142383,12.133702 1.1889894,12.758365 0.56374048,13.383027 3.3059599,16.125379 6.0481792,18.867731 6.6732014,18.24271 7.2982236,17.617687 Z"
     id="path4515"
     inkscape:connector-curvature="0" />
  <path
     style="fill:#008000;fill-opacity:1;stroke:#000000;stroke-width:0.03125;stroke-opacity:1"
     d="M 3.2904629,16.141132 C 1.7908904,14.641486 0.56396738,13.400339 0.56396738,13.383027 c 0,-0.01731 0.28131097,-0.312524 0.62513552,-0.656026 l 0.6251355,-0.624549 2.7575193,2.757519 2.7575194,2.75752 -0.6245494,0.625135 c -0.3435022,0.343825 -0.6387738,0.625135 -0.6561594,0.625135 -0.017385,0 -1.2585328,-1.226983 -2.7581054,-2.726629 z m 1.2501454,-1.24981 -2.7263626,-2.726362 -0.6096312,0.609029 -0.60963117,0.60903 2.72659657,2.72673 2.7265965,2.726731 0.6093975,-0.609398 0.6093972,-0.609397 z"
     id="path4517"
     inkscape:connector-curvature="0" />
  <path
     style="fill:#008000;fill-opacity:1;stroke:#000000;stroke-width:0.03125;stroke-opacity:1"
     d="m 5.9858424,18.961511 c -0.010623,-0.01719 -5e-4,-0.03125 0.022496,-0.03125 0.022995,0 0.1326756,-0.09492 0.2437338,-0.210937 L 6.4539964,18.508386 6.2539386,18.701242 6.0538808,18.894098 4.6526602,17.513831 C 3.8819886,16.754685 2.6408915,15.513589 1.8946663,14.755841 L 0.53789317,13.378116 1.1734333,12.724501 1.8089734,12.070887 4.5850143,14.836512 7.3610552,17.602136 4.5793324,14.813074 C 3.0493849,13.27909 1.8118666,12.024012 1.8292918,12.024012 c 0.041271,0 5.5784256,5.537185 5.5784256,5.578456 0,0.03459 -1.3468653,1.390293 -1.3812288,1.390293 -0.011733,0 -0.030024,-0.01406 -0.040646,-0.03125 z M 4.5249858,14.90695 1.8142534,12.196218 1.2202396,12.789614 0.62622579,13.383011 3.3371997,16.094119 6.0481736,18.805227 6.6419461,18.211455 7.2357183,17.617682 Z"
     id="path4519"
     inkscape:connector-curvature="0" />
  <path
     style="fill:#008000;fill-opacity:1;stroke:#000000;stroke-width:0.0078125;stroke-opacity:1"
     d="M 3.3257557,16.103953 0.60701516,13.385204 1.210528,12.781692 l 0.6035128,-0.603513 2.7206905,2.72069 2.7206904,2.720691 -0.6015332,0.601571 c -0.3308433,0.330864 -0.6033016,0.601571 -0.6054628,0.601571 -0.00216,0 -1.2273627,-1.223437 -2.72267,-2.718749 z m 3.3086018,2.097646 0.582001,-0.58204 L 4.5151998,14.9184 1.814041,12.217241 1.2300595,12.801223 0.64607791,13.385205 3.3452871,16.084422 c 1.484565,1.48457 2.7009776,2.699218 2.7031392,2.699218 0.00216,0 0.2658306,-0.261918 0.5859312,-0.582041 z"
     id="path4521"
     inkscape:connector-curvature="0" />
  <path
     style="fill:#008000;fill-opacity:1;stroke:#000000;stroke-width:0.0078125;stroke-opacity:1"
     d="M 6.0093484,19.00349 C 6.0028984,19.00039 4.7380286,17.737516 3.1985162,16.197076 L 0.39940276,13.396277 1.0449111,12.761834 1.6904195,12.12739 h 0.1384151 0.1384152 l 0.6675337,0.659113 c 0.8356547,0.825113 4.059927,4.053924 4.4824969,4.488806 0.1729948,0.178036 0.3135236,0.328025 0.3122863,0.33331 -0.00659,0.02813 -1.1963125,1.2287 -1.3410768,1.353295 -0.058126,0.05003 -0.059735,0.05087 -0.079141,0.04158 z"
     id="path4523"
     inkscape:connector-curvature="0" />
  <path
     style="fill:#008000;fill-opacity:1;stroke:#000000;stroke-width:0.00552427;stroke-opacity:1"
     d="M 2.6815417,15.682389 C 1.4259451,14.42679 0.39863887,13.397962 0.39863887,13.396105 c 0,-0.004 1.16800453,-1.15197 1.31931013,-1.296627 l 0.1058946,-0.101242 0.015221,0.01188 c 0.1052698,0.08214 1.782291,1.745878 3.622686,3.594001 0.6502707,0.653002 1.3015823,1.307925 1.447359,1.455386 0.270133,0.273252 0.5017668,0.514908 0.5160493,0.538377 0.00748,0.01229 0.00647,0.01472 -0.017626,0.04245 -0.051438,0.05921 -0.3093714,0.322265 -0.3178832,0.324197 -0.00482,0.0011 0.053392,-0.0623 0.1293696,-0.140869 0.1888141,-0.195265 0.2027182,-0.210511 0.1993804,-0.218632 -0.00542,-0.01319 -0.187717,-0.204404 -0.4541631,-0.476383 C 6.5564495,16.712388 3.3207302,13.474404 2.6035624,12.764917 l -0.6373143,-0.630489 -0.1360837,-0.0013 -0.1360838,-0.0013 -0.4529903,0.445499 C 0.99194565,12.822419 0.70241147,13.10708 0.59768101,13.209975 l -0.19041903,0.187081 2.28411552,2.28412 c 1.2562635,1.256267 2.2816295,2.284121 2.2785912,2.284121 -0.00304,0 -1.0328305,-1.027309 -2.288427,-2.282908 z m -0.8604029,-3.57282 c -0.0055,-0.0061 -0.011501,-0.01105 -0.013338,-0.01105 -0.00184,0 -0.00644,0.005 -0.010239,0.01105 -0.00643,0.01029 -0.00552,0.01105 0.013338,0.01105 0.019888,0 0.020065,-1.91e-4 0.010239,-0.01105 z m 0.034946,-0.02783 c -0.019144,-0.02138 -0.035753,-0.03604 -0.036907,-0.03258 -0.00217,0.0065 0.058768,0.07146 0.067048,0.07146 0.00257,0 -0.010997,-0.01749 -0.030141,-0.03888 z"
     id="path4525"
     inkscape:connector-curvature="0" />
  <path
     style="fill:#008000;fill-opacity:1;stroke:#000000;stroke-width:0.00552427;stroke-opacity:1"
     d="M 2.6755866,15.68175 0.39221265,13.398202 0.61225343,13.18043 C 1.2865401,12.513094 1.8105256,12.002256 1.8228246,12.000232 c 0.00634,-0.001 0.046831,0.03311 0.114546,0.09661 0.2797177,0.26232 1.9207757,1.894115 3.6118542,3.591467 1.5720412,1.577873 1.881812,1.893866 1.881812,1.919614 0,0.01349 -0.011928,0.02671 -0.1891875,0.209599 l -0.143224,0.147774 H 6.0287932 4.9589606 Z"
     id="path4527"
     inkscape:connector-curvature="0" />
  <path
     style="fill:#008000;fill-opacity:1;stroke:#000000;stroke-width:0.00390625;stroke-opacity:1"
     d="M 8.150198,15.550665 6.0292129,13.430714 6.5205784,12.939337 7.0119439,12.44796 h 0.019531 0.019531 l -0.491453,0.491464 -0.491453,0.491465 2.1215425,2.119864 2.1215426,2.119863 h -0.02 -0.02 z"
     id="path4529"
     inkscape:connector-curvature="0" />
  <path
     style="fill:#008000;fill-opacity:1;stroke:#000000;stroke-width:0.00390625;stroke-opacity:1"
     d="m 8.1461934,15.550639 -2.1208339,-2.119978 0.4913391,-0.49135 0.491339,-0.491351 0.4921934,1.38e-4 0.4921933,1.39e-4 1.0175781,1.015554 c 1.6445696,1.641299 2.5094906,2.497158 2.6398446,2.612188 l 0.02461,0.02172 0.02127,-0.021 0.02127,-0.02101 9.95e-4,0.807466 9.95e-4,0.807465 h -0.72598 -0.72598 z"
     id="path4531"
     inkscape:connector-curvature="0" />
  <path
     style="fill:#008000;fill-opacity:1;stroke:#000000;stroke-width:0.01104854;stroke-opacity:1"
     d="M 10.949016,18.342776 C 10.575638,17.977038 9.3143033,16.722901 8.1460499,15.555806 l -2.124097,-2.121991 0.7402638,-0.740264 0.7402639,-0.740264 1.3838331,1.382146 c 1.5052563,1.503421 2.6713593,2.658462 2.7456063,2.719561 l 0.047,0.03867 0.179114,-0.175379 c 0.462549,-0.452902 3.063691,-3.041248 4.428033,-4.406251 l 1.51916,-1.5198943 h 1.447333 1.447334 l -0.568959,0.5700943 c -1.562708,1.565822 -8.366555,8.345 -8.422286,8.391747 -0.03526,0.02957 -0.06785,0.05377 -0.07243,0.05377 -0.0046,0 -0.31382,-0.29924 -0.687199,-0.664979 z"
     id="path4533"
     inkscape:connector-curvature="0" />
  <path
     style="fill:#008000;fill-opacity:1;stroke:#000000;stroke-width:0.01104854;stroke-opacity:1"
     d="M 3.1927187,16.204187 0.38402728,13.400619 0.84690272,12.943805 C 1.1014842,12.692558 1.4253689,12.374989 1.5666465,12.238097 l 0.2568684,-0.248894 0.085033,0.07594 c 0.1697001,0.151556 2.3303137,2.300047 3.7605866,3.739488 1.5525811,1.562533 1.767061,1.78182 1.767061,1.806666 0,0.01726 -1.0144556,1.043461 -1.2452988,1.259714 -0.084604,0.07926 -0.155116,0.136743 -0.1677276,0.136743 -0.01421,0 -0.9961991,-0.972662 -2.8304504,-2.803568 z"
     id="path4535"
     inkscape:connector-curvature="0" />
  <path
     style="fill:#008000;fill-opacity:1;stroke:#000000;stroke-width:0.02209709;stroke-opacity:1"
     d="M 11.053365,18.453196 C 10.742023,18.146677 9.4805088,16.891322 8.249999,15.663519 l -2.2372904,-2.23237 0.7446794,-0.744921 0.7446795,-0.744921 2.0714862,2.065141 c 1.1393173,1.135828 2.0842893,2.065142 2.0999373,2.065142 0.02994,0 1.092463,-1.055545 6.973139,-6.9273161 l 3.607341,-3.6018783 0.723314,0.7233136 0.723314,0.7233135 -1.767393,1.7703328 C 17.369495,13.330658 11.669574,19.010503 11.645823,19.010503 c -0.01451,0 -0.281117,-0.250788 -0.592458,-0.557307 z"
     id="path4537"
     inkscape:connector-curvature="0" />
</svg>
